<svg xmlns="http://www.w3.org/2000/svg" width="1080" height="1080" viewBox="0 0 1080 1080">
  <defs>
    <linearGradient id="bg" x1="0" y1="0" x2="1" y2="1">
      <stop offset="0" stop-color="#071120"/>
      <stop offset="0.48" stop-color="#020408"/>
      <stop offset="1" stop-color="#111827"/>
    </linearGradient>
    <linearGradient id="gold" x1="0" y1="0" x2="1" y2="0">
      <stop offset="0" stop-color="#f5d46b"/>
      <stop offset="1" stop-color="#b8860b"/>
    </linearGradient>
    <filter id="glow">
      <feGaussianBlur stdDeviation="8" result="blur"/>
      <feMerge>
        <feMergeNode in="blur"/>
        <feMergeNode in="SourceGraphic"/>
      </feMerge>
    </filter>
  </defs>
  <rect width="1080" height="1080" fill="url(#bg)"/>
  <path d="M0 790 L1080 520 L1080 1080 L0 1080 Z" fill="#090b10"/>
  <path d="M-80 210 L500 90 L430 145 L1080 -15" stroke="#c1121f" stroke-width="20" opacity=".82"/>
  <path d="M-90 950 L1180 610" stroke="#d6a820" stroke-width="10" opacity=".7"/>
  <path d="M96 150 Q540 50 984 150" stroke="#ffffff" stroke-width="2" opacity=".13" fill="none"/>
  <g opacity=".32">
    <circle cx="110" cy="145" r="34" fill="#fff" filter="url(#glow)"/>
    <circle cx="970" cy="150" r="34" fill="#fff" filter="url(#glow)"/>
    <path d="M110 145 C350 315 720 315 970 150" stroke="#fff" stroke-width="3" fill="none"/>
  </g>
  <g transform="translate(594 286)" fill="#05070b">
    <circle cx="71" cy="42" r="32"/>
    <path d="M53 76 C17 105 6 164 26 222 L71 354 L119 351 L98 225 L134 302 L179 285 L135 176 C121 112 100 84 53 76 Z"/>
    <path d="M33 138 L-65 191 L-45 231 L58 181 Z"/>
    <path d="M124 135 L225 171 L241 129 L139 91 Z"/>
    <path d="M72 349 L26 520 L75 520 L121 354 Z"/>
    <path d="M120 348 L201 503 L252 503 L170 332 Z"/>
    <circle cx="286" cy="504" r="36" fill="none" stroke="#f5d46b" stroke-width="10"/>
  </g>
  <text x="70" y="236" fill="#ffffff" font-family="Arial Black, Impact, sans-serif" font-size="156" font-weight="900">GAFC</text>
  <rect x="75" y="263" width="340" height="12" fill="url(#gold)"/>
  <text x="74" y="350" fill="#f5d46b" font-family="Arial, sans-serif" font-size="42" font-weight="700" letter-spacing="0">RISE WITH GAFC</text>
  <text x="77" y="405" fill="#ffffff" font-family="Arial, sans-serif" font-size="25" opacity=".86">DATE: [ADD DATE]  |  LOCATION: [ADD LOCATION]</text>
  <text x="77" y="444" fill="#ffffff" font-family="Arial, sans-serif" font-size="25" opacity=".86">@GAFC  |  WWW.GAFC.COM</text>
  <g transform="translate(75 842)">
    <rect width="930" height="88" fill="none" stroke="#ffffff" stroke-width="2" opacity=".32"/>
    <text x="28" y="55" fill="#ffffff" font-family="Arial, sans-serif" font-size="28" font-weight="700">SPONSOR</text>
    <text x="245" y="55" fill="#ffffff" font-family="Arial, sans-serif" font-size="28" font-weight="700">SPONSOR</text>
    <text x="462" y="55" fill="#ffffff" font-family="Arial, sans-serif" font-size="28" font-weight="700">SPONSOR</text>
    <text x="679" y="55" fill="#ffffff" font-family="Arial, sans-serif" font-size="28" font-weight="700">SPONSOR</text>
  </g>
</svg>
