<svg xmlns="http://www.w3.org/2000/svg" width="1080" height="1920" viewBox="0 0 1080 1920">
  <defs>
    <linearGradient id="bg" x1="0" y1="0" x2="0" y2="1">
      <stop offset="0" stop-color="#071120"/>
      <stop offset=".56" stop-color="#05070b"/>
      <stop offset="1" stop-color="#000000"/>
    </linearGradient>
    <linearGradient id="red" x1="0" y1="0" x2="1" y2="1">
      <stop offset="0" stop-color="#ef233c"/>
      <stop offset="1" stop-color="#8b0000"/>
    </linearGradient>
    <filter id="blur"><feGaussianBlur stdDeviation="12"/></filter>
  </defs>
  <rect width="1080" height="1920" fill="url(#bg)"/>
  <g opacity=".25" filter="url(#blur)">
    <circle cx="140" cy="360" r="72" fill="#fff"/>
    <circle cx="540" cy="300" r="86" fill="#fff"/>
    <circle cx="940" cy="360" r="72" fill="#fff"/>
  </g>
  <path d="M0 1450 C230 1350 430 1360 620 1455 C810 1548 940 1536 1080 1475 L1080 1920 L0 1920 Z" fill="#08121f"/>
  <path d="M-220 610 L900 260 L820 340 L1280 180" stroke="#d6a820" stroke-width="18" opacity=".72"/>
  <path d="M-160 910 L1260 520" stroke="url(#red)" stroke-width="28" opacity=".85"/>
  <text x="70" y="250" fill="#ffffff" font-family="Arial Black, Impact, sans-serif" font-size="150" font-weight="900">GAFC</text>
  <text x="72" y="342" fill="#f5d46b" font-family="Arial, sans-serif" font-size="42" font-weight="700">ONE CLUB.</text>
  <text x="72" y="403" fill="#ffffff" font-family="Arial Black, Impact, sans-serif" font-size="88" font-weight="900">ONE GOAL.</text>
  <g transform="translate(405 620)" fill="#010204">
    <circle cx="128" cy="66" r="50"/>
    <path d="M96 128 C45 172 29 267 64 348 L122 612 L194 612 L163 362 L228 491 L294 454 L224 266 C209 182 171 134 96 128 Z"/>
    <path d="M68 218 L-68 302 L-37 365 L106 270 Z"/>
    <path d="M218 211 L360 264 L384 200 L230 143 Z"/>
    <path d="M124 611 L61 835 L133 835 L203 611 Z"/>
    <path d="M196 611 L319 818 L397 818 L268 582 Z"/>
    <circle cx="440" cy="820" r="48" fill="none" stroke="#f5d46b" stroke-width="12"/>
  </g>
  <rect x="70" y="1545" width="940" height="110" fill="#ffffff" opacity=".93"/>
  <text x="112" y="1615" fill="#071120" font-family="Arial, sans-serif" font-size="38" font-weight="800">[CALL TO ACTION]</text>
  <text x="112" y="1710" fill="#ffffff" font-family="Arial, sans-serif" font-size="30">[DATE]  |  [LOCATION]  |  @GAFC</text>
  <text x="112" y="1760" fill="#f5d46b" font-family="Arial, sans-serif" font-size="30">WWW.GAFC.COM</text>
</svg>
