<svg xmlns="http://www.w3.org/2000/svg" width="1800" height="2700" viewBox="0 0 1800 2700">
  <defs>
    <linearGradient id="bg" x1="0" y1="0" x2="1" y2="1">
      <stop offset="0" stop-color="#0b1728"/>
      <stop offset=".5" stop-color="#04060a"/>
      <stop offset="1" stop-color="#111111"/>
    </linearGradient>
    <linearGradient id="gold" x1="0" y1="0" x2="1" y2="0">
      <stop offset="0" stop-color="#f9dc7c"/>
      <stop offset="1" stop-color="#b8860b"/>
    </linearGradient>
  </defs>
  <rect width="1800" height="2700" fill="url(#bg)"/>
  <path d="M0 2060 L1800 1510 L1800 2700 L0 2700 Z" fill="#05080d"/>
  <path d="M-150 470 L1740 90" stroke="#c1121f" stroke-width="42" opacity=".75"/>
  <path d="M-120 640 L1910 220" stroke="#f5d46b" stroke-width="16" opacity=".72"/>
  <path d="M180 440 Q900 230 1620 440" stroke="#fff" stroke-width="4" opacity=".14" fill="none"/>
  <g opacity=".22">
    <circle cx="210" cy="420" r="64" fill="#fff"/>
    <circle cx="900" cy="310" r="80" fill="#fff"/>
    <circle cx="1590" cy="420" r="64" fill="#fff"/>
  </g>
  <text x="120" y="430" fill="#ffffff" font-family="Arial Black, Impact, sans-serif" font-size="300" font-weight="900">GAFC</text>
  <rect x="130" y="485" width="610" height="22" fill="url(#gold)"/>
  <text x="130" y="650" fill="#f5d46b" font-family="Arial, sans-serif" font-size="78" font-weight="800">BUILT FOR THE GAME</text>
  <text x="134" y="744" fill="#ffffff" font-family="Arial, sans-serif" font-size="46">UNITY  |  AMBITION  |  COMMUNITY PRIDE</text>
  <g transform="translate(880 930)" fill="#010204">
    <circle cx="130" cy="70" r="58"/>
    <path d="M88 141 C35 190 20 290 56 385 L130 730 L218 730 L176 402 L250 560 L332 518 L254 290 C232 198 178 148 88 141 Z"/>
    <path d="M64 238 L-142 362 L-92 444 L112 306 Z"/>
    <path d="M240 229 L464 312 L495 226 L258 142 Z"/>
    <path d="M132 728 L52 1032 L142 1032 L228 728 Z"/>
    <path d="M221 728 L384 1005 L482 1005 L306 692 Z"/>
    <circle cx="560" cy="1012" r="70" fill="none" stroke="#f5d46b" stroke-width="18"/>
  </g>
  <g transform="translate(120 1840)">
    <rect x="0" y="0" width="520" height="135" fill="#ffffff"/>
    <text x="42" y="86" fill="#071120" font-family="Arial, sans-serif" font-size="48" font-weight="900">[ADD DATE]</text>
    <rect x="0" y="165" width="880" height="5" fill="#c1121f"/>
    <text x="0" y="250" fill="#ffffff" font-family="Arial, sans-serif" font-size="54" font-weight="800">[ADD LOCATION]</text>
    <text x="0" y="325" fill="#f5d46b" font-family="Arial, sans-serif" font-size="42">WWW.GAFC.COM  |  @GAFC</text>
  </g>
  <g transform="translate(120 2440)">
    <rect width="1560" height="150" fill="none" stroke="#ffffff" stroke-width="4" opacity=".35"/>
    <text x="52" y="92" fill="#ffffff" font-family="Arial, sans-serif" font-size="44" font-weight="800">SPONSOR</text>
    <text x="420" y="92" fill="#ffffff" font-family="Arial, sans-serif" font-size="44" font-weight="800">SPONSOR</text>
    <text x="788" y="92" fill="#ffffff" font-family="Arial, sans-serif" font-size="44" font-weight="800">SPONSOR</text>
    <text x="1156" y="92" fill="#ffffff" font-family="Arial, sans-serif" font-size="44" font-weight="800">SPONSOR</text>
  </g>
</svg>
