<svg xmlns="http://www.w3.org/2000/svg" width="1920" height="720" viewBox="0 0 1920 720">
  <defs>
    <linearGradient id="bg" x1="0" y1="0" x2="1" y2="0">
      <stop offset="0" stop-color="#071120"/>
      <stop offset=".55" stop-color="#020408"/>
      <stop offset="1" stop-color="#111827"/>
    </linearGradient>
    <linearGradient id="gold" x1="0" y1="0" x2="1" y2="0">
      <stop offset="0" stop-color="#f5d46b"/>
      <stop offset="1" stop-color="#b8860b"/>
    </linearGradient>
  </defs>
  <rect width="1920" height="720" fill="url(#bg)"/>
  <path d="M0 520 L1920 230 L1920 720 L0 720 Z" fill="#05070b"/>
  <path d="M-60 145 L1260 -60" stroke="#c1121f" stroke-width="36" opacity=".82"/>
  <path d="M-20 605 L1990 292" stroke="#f5d46b" stroke-width="10" opacity=".72"/>
  <g opacity=".2">
    <circle cx="1320" cy="120" r="58" fill="#fff"/>
    <circle cx="1570" cy="110" r="64" fill="#fff"/>
    <circle cx="1810" cy="130" r="54" fill="#fff"/>
  </g>
  <text x="90" y="250" fill="#ffffff" font-family="Arial Black, Impact, sans-serif" font-size="185" font-weight="900">GAFC</text>
  <text x="98" y="345" fill="#f5d46b" font-family="Arial, sans-serif" font-size="50" font-weight="800">SEASON CAMPAIGN</text>
  <text x="100" y="420" fill="#ffffff" font-family="Arial, sans-serif" font-size="34">[DATE]  |  [LOCATION]  |  WWW.GAFC.COM  |  @GAFC</text>
  <rect x="100" y="465" width="520" height="8" fill="url(#gold)"/>
  <g transform="translate(1180 156)" fill="#010204">
    <circle cx="74" cy="44" r="34"/>
    <path d="M52 82 C18 112 9 178 31 235 L72 392 L124 392 L104 243 L148 338 L197 315 L148 180 C136 118 103 85 52 82 Z"/>
    <path d="M32 142 L-72 206 L-46 252 L63 178 Z"/>
    <path d="M142 136 L260 180 L277 130 L153 88 Z"/>
    <path d="M74 390 L28 560 L82 560 L132 390 Z"/>
    <path d="M128 390 L224 548 L284 548 L178 368 Z"/>
    <circle cx="340" cy="548" r="38" fill="none" stroke="#f5d46b" stroke-width="10"/>
  </g>
  <g transform="translate(980 575)">
    <rect width="820" height="74" fill="none" stroke="#ffffff" stroke-width="2" opacity=".32"/>
    <text x="38" y="48" fill="#ffffff" font-family="Arial, sans-serif" font-size="26" font-weight="800">SPONSOR</text>
    <text x="238" y="48" fill="#ffffff" font-family="Arial, sans-serif" font-size="26" font-weight="800">SPONSOR</text>
    <text x="438" y="48" fill="#ffffff" font-family="Arial, sans-serif" font-size="26" font-weight="800">SPONSOR</text>
    <text x="638" y="48" fill="#ffffff" font-family="Arial, sans-serif" font-size="26" font-weight="800">SPONSOR</text>
  </g>
</svg>
