<svg xmlns="http://www.w3.org/2000/svg" viewBox="0 0 128 128"><rect width="128" height="128" rx="28" fill="#eaf8ff"/><path d="M35 78c-11 0-20-9-20-20s9-20 20-20c5-16 20-26 38-22 15 4 26 16 28 31 9 3 15 11 15 21 0 12-10 22-22 22H35z" fill="#fff" stroke="#78c6ff" stroke-width="6"/><path d="M48 62c5 7 13 11 22 11s17-4 22-11" stroke="#31558e" stroke-width="6" stroke-linecap="round" fill="none"/><circle cx="52" cy="53" r="4" fill="#31558e"/><circle cx="86" cy="53" r="4" fill="#31558e"/><path d="M26 98h74" stroke="#a6dfbd" stroke-width="8" stroke-linecap="round"/></svg>