<svg xmlns="http://www.w3.org/2000/svg" viewBox="0 0 128 128"><rect width="128" height="128" rx="28" fill="#e8f3ff"/><circle cx="92" cy="26" r="14" fill="#ffd76d"/><path d="M30 38h42c10 0 18 8 18 18v42H42c-10 0-18-8-18-18V44c0-3 3-6 6-6z" fill="#4f8cff"/><path d="M38 32h42c10 0 18 8 18 18v42H50c-10 0-18-8-18-18V38c0-3 3-6 6-6z" fill="#78c6ff"/><path d="M48 52h34M48 66h28M48 80h18" stroke="#fff" stroke-width="7" stroke-linecap="round"/><path d="M32 40v40c0 10 8 18 18 18" fill="none" stroke="#2f5fb3" stroke-width="6" stroke-linecap="round"/></svg>