<svg xmlns="http://www.w3.org/2000/svg" width="1400" height="900" viewBox="0 0 1400 900" role="img" aria-label="CALLUX uniform rendering">
  <rect width="1400" height="900" fill="#F7F9FC"/>
  <text x="80" y="95" fill="#101828" font-family="Inter, Arial, sans-serif" font-size="44" font-weight="800">CALLUX Uniform System</text>
  <text x="80" y="136" fill="#667085" font-family="Inter, Arial, sans-serif" font-size="22">Professional, respectful, field-ready kit with rank patch system</text>
  <g transform="translate(160 210)">
    <path d="M190 0c52 0 94 42 94 94v426H96V94c0-52 42-94 94-94Z" fill="#141820"/>
    <path d="M96 124 20 260l68 38 64-112Z" fill="#0D0F12"/>
    <path d="M284 124l76 136-68 38-64-112Z" fill="#0D0F12"/>
    <rect x="136" y="110" width="108" height="34" rx="17" fill="#2BB673"/>
    <text x="190" y="134" text-anchor="middle" fill="#FFFFFF" font-family="Inter, Arial, sans-serif" font-size="18" font-weight="800">CALLUX</text>
    <rect x="214" y="170" width="48" height="64" rx="6" fill="#FFFFFF"/>
    <text x="238" y="207" text-anchor="middle" fill="#101828" font-family="Inter, Arial, sans-serif" font-size="12" font-weight="700">ID</text>
    <circle cx="133" cy="260" r="24" fill="#D98A2B"/>
    <text x="133" y="267" text-anchor="middle" fill="#FFFFFF" font-family="Inter, Arial, sans-serif" font-size="13" font-weight="800">SR</text>
  </g>
  <g transform="translate(590 220)">
    <rect x="0" y="0" width="260" height="330" rx="26" fill="#20242C"/>
    <path d="M70 0h120l-60 82Z" fill="#0D0F12"/>
    <text x="130" y="140" text-anchor="middle" fill="#FFFFFF" font-family="Inter, Arial, sans-serif" font-size="36" font-weight="800">CALLUX</text>
    <text x="130" y="178" text-anchor="middle" fill="#9BD7FF" font-family="Inter, Arial, sans-serif" font-size="18">Dignity Transport</text>
    <rect x="42" y="230" width="176" height="46" rx="23" fill="#2BB673"/>
    <text x="130" y="260" text-anchor="middle" fill="#FFFFFF" font-family="Inter, Arial, sans-serif" font-size="18" font-weight="700">PROFESSIONAL</text>
  </g>
  <g transform="translate(960 220)">
    <path d="M88 0h106l42 470H46Z" fill="#101828"/>
    <rect x="72" y="170" width="140" height="62" rx="8" fill="#20242C"/>
    <text x="142" y="207" text-anchor="middle" fill="#98A2B3" font-family="Inter, Arial, sans-serif" font-size="17">PPE POCKET</text>
    <path d="M70 476h70v90H58Z" fill="#0D0F12"/>
    <path d="M148 476h70l12 90h-82Z" fill="#0D0F12"/>
  </g>
  <g transform="translate(105 760)">
    <rect width="1190" height="64" rx="12" fill="#FFFFFF" stroke="#D0D5DD"/>
    <text x="28" y="40" fill="#475467" font-family="Inter, Arial, sans-serif" font-size="22">Kit: black softshell jacket - charcoal polo - cargo pants - ID badge - rank patch - PPE-ready storage</text>
  </g>
</svg>
