<svg xmlns="http://www.w3.org/2000/svg" width="1400" height="800" viewBox="0 0 1400 800" role="img" aria-label="CALLUX van decal rendering">
  <rect width="1400" height="800" fill="#F7F9FC"/>
  <g transform="translate(120 210)">
    <path d="M85 250h870c46 0 85-36 92-82l28-173c6-38-24-72-62-72H505c-50 0-98 19-134 54L228 116H84c-46 0-84 38-84 84v50h85Z" fill="#FFFFFF" stroke="#D0D5DD" stroke-width="6"/>
    <path d="M412-10h268c44 0 87 15 121 43l102 83H305l107-126Z" fill="#E6F4FB" stroke="#D0D5DD" stroke-width="5"/>
    <rect x="525" y="120" width="364" height="104" rx="8" fill="#0D0F12"/>
    <text x="558" y="178" fill="#FFFFFF" font-family="Inter, Arial, sans-serif" font-size="50" font-weight="800">CALLUX</text>
    <text x="562" y="210" fill="#9BD7FF" font-family="Inter, Arial, sans-serif" font-size="21">Dignity Transport Group</text>
    <path d="M102 122c151-62 294-63 430-2" fill="none" stroke="#2BB673" stroke-width="12" stroke-linecap="round"/>
    <circle cx="102" cy="122" r="16" fill="#2BB673"/>
    <circle cx="532" cy="120" r="16" fill="#2BB673"/>
    <text x="112" y="178" fill="#101828" font-family="Inter, Arial, sans-serif" font-size="28" font-weight="700">24/7 Certified Transport</text>
    <text x="112" y="216" fill="#475467" font-family="Inter, Arial, sans-serif" font-size="22">Sacramento - Bay Area - Reno - Stockton</text>
    <text x="932" y="182" fill="#101828" font-family="Inter, Arial, sans-serif" font-size="22" text-anchor="end">(916) 000-0000</text>
    <text x="932" y="214" fill="#2BB673" font-family="Inter, Arial, sans-serif" font-size="22" font-weight="700" text-anchor="end">calluxos.com</text>
    <circle cx="220" cy="262" r="68" fill="#101828"/>
    <circle cx="220" cy="262" r="32" fill="#98A2B3"/>
    <circle cx="855" cy="262" r="68" fill="#101828"/>
    <circle cx="855" cy="262" r="32" fill="#98A2B3"/>
  </g>
  <text x="700" y="690" text-anchor="middle" fill="#667085" font-family="Inter, Arial, sans-serif" font-size="24">Fleet decal concept: discreet, professional, audit-ready transport brand</text>
</svg>
